<svg
  xmlns="http://www.w3.org/2000/svg"
  height="512"
  width="512"
  version="1.1"
  style=""
>
  <rect id="backgroundrect" width="100%" height="100%" x="0" y="0" fill="none" stroke="none" class="" style=""/>
  <defs id="defs62"/>
<g class="currentLayer" style="">
  <title>Layer 1</title>
  <g class="">
    <path id="path2"
          style="fill:#006ab3;fill-rule:evenodd"
          d="m55.119376583310384,132.2295389110758 c41.750397378540036,-21.324305834555627 87.22255433502197,-38.80266553449631 141.25847808761597,-47.431848442101476 l27.483098793029786,18.602010212588308 c-51.70741613159179,5.312457631421089 -99.04012075500488,19.43359396095276 -146.98094083328246,42.466370245099064 c6.116027362823486,140.63958511753083 59.13964313812256,249.69271596474647 180.37979739913942,320.1923475182056 c121.23982213897706,-70.49963155345917 174.26343791427612,-179.55276240067482 180.3794652770996,-320.1923475182056 c-47.94048795623779,-23.03277628414631 -95.27352470169068,-37.153912613677974 -146.9806087112427,-42.466370245099064 l27.483098793029786,-18.602010212588308 c54.0355916305542,8.629182907605172 99.50774858703613,26.107542607545852 141.25847808761597,47.431848442101476 c-3.2896688041686994,155.30092483952046 -59.80720843811035,280.9850442456484 -202.1404334465027,358.91813531451226 C114.92625289938096,413.21458315672413 58.4090453874791,287.5304637505962 55.119376583310384,132.2295389110758 z" class=""/><path id="path4" style="fill:#ffffff;fill-rule:evenodd;stroke:#1b1918;stroke-width:0.21600001;stroke-linecap:butt;stroke-linejoin:miter;stroke-dasharray:none" d="m342.6201560877049,73.35594923786661 c43.073239463043215,9.13815471892357 83.75121477508544,24.439227047991753 123.52747874908447,44.75554218137264 l8.691633781433106,4.4403757888317115 l-0.20923688507080113,10.018473462033272 c-3.497245079040527,165.3163094638586 -66.13014783172608,293.59024767525193 -210.2375687767029,372.4904881468773 l-7.1333171707153324,3.9060068675756456 l-7.1333171707153324,-3.9060068675756456 C106.01741130392196,426.1605883453562 43.388494015713945,297.88596372558607 39.88527073995711,132.56931105753915 l-0.20890476303100616,-10.018473462033272 l8.692298025512695,-4.43934617626667 c39.778920950317385,-20.31425590825081 80.45423928604126,-35.617387462449074 123.52648238296509,-44.75554218137264 l-11.958386164855957,-8.094127577972412 l75.74640937194823,0.13316322507858286 l21.575976193237306,-62.50537639429569 l21.576972559356687,62.50537639429569 l75.73943480911255,-0.13316322507858286 z" class=""/><path id="path6" style="fill:#ffffff;fill-rule:evenodd" d="m317.64524293920636,78.63374324626457 l1.3866095161438001,0.2206802931070329 c50.66189595031738,8.087949902582169 97.09919955444336,24.562780555796625 142.944329561615,47.97857271413803 l3.3215525199890137,1.6964583029985445 l-0.08037353363037116,3.8284427210092544 c-3.416871545410156,161.52287357006074 -63.97334730529785,286.7649459815979 -205.23248963699342,364.1066962339401 l-2.725725580596926,1.4919086067438136 l-2.725725580596926,-1.4919086067438136 C113.27361362936142,419.1228432591153 52.71946272375227,293.8807708475782 49.298273591824795,132.35789727751748 l-0.08070565567016617,-3.8284427210092544 l3.3225488861083985,-1.6964583029985445 c45.8471227394104,-23.413732933211325 92.28143724517822,-39.89062281155586 142.94532592773436,-47.97857271413803 l1.3886022483825684,-0.22170990567207374 l-5.300003511047364,-3.5868269724130633 l50.742601605987545,0.0892330889701845 l14.942502692413331,-43.2890306845665 l14.943499058532714,43.2890306845665 l50.742601605987545,-0.0892330889701845 z" class=""/><path id="path8" style="fill:#006ab3;fill-rule:evenodd" d="m55.119376583310384,132.22645007338068 c41.75205798873902,-21.321903405237197 87.21890099258422,-38.79957669680118 141.25515686721803,-47.42601397089958 l27.48608789138794,18.598578170704844 c-51.707084009552,5.3114280188560485 -99.04178136520386,19.431877940011024 -146.98127295532228,42.46568383672238 c6.117023728942871,140.64507638454435 59.14396072463989,249.69511839406488 180.37979739913942,320.1930339265823 c121.23882577285767,-70.49791553251744 174.26343791427612,-179.54795754203795 180.38345074157715,-320.1930339265823 c-47.94214856643677,-23.03380589671135 -95.27684592208863,-37.15425581786632 -146.98392993164063,-42.46568383672238 l27.48409515914917,-18.598578170704844 c54.038248606872564,8.626437274098397 99.50675222091674,26.104110565662385 141.25349625701904,47.42601397089958 c-3.284686973571777,155.2998952269554 -59.80089811935425,280.9901923084736 -202.13711222610473,358.9215673563957 C114.92293167898299,413.2166423818543 58.40871326543929,287.52634530033606 55.119376583310384,132.22645007338068 z" class=""/><path id="path10" style="fill:#006ab3;fill-rule:evenodd" d="m428.83704488622783,149.46916833274173 c-45.150662821960445,-21.082690085959435 -89.95625084457397,-34.03761858348847 -138.12258178787232,-39.11635416264534 l1.6137809913635266,4.615066720700264 c45.831180881500245,5.082510825228692 88.94095376892089,17.439920830845832 132.08427098236086,37.2778093256712 c-7.585003144836427,129.56369955120087 -56.95394799423217,229.9814698154211 -167.15270504226683,296.660552344203 C147.0607208597386,382.227160031889 97.69210813238263,281.80938976766873 90.10677286550646,152.24569021646784 c43.14331721343994,-19.83788849482536 86.2534222229004,-32.195298500442505 132.08427098236086,-37.2778093256712 l1.6137809913635266,-4.615066720700264 c-48.166330943298334,5.078735579156875 -92.97158684387207,18.033664076685906 -138.12258178787232,39.11635416264534 c7.115382580566406,133.32933590574262 57.74572693710327,236.58574801177977 171.5775669784546,304.5319404039383 c113.83150791931152,-67.94619239215851 164.4621843978882,-171.20260449819565 171.57723485641478,-304.5319404039383 z" class=""/><path id="path12" style="fill:#e30016;fill-rule:evenodd" d="m257.2598100298131,49.7531107968761 l10.838802768707275,31.40833129656315 l35.284313385772705,-0.06349277484416971 l-28.585411843109128,19.34813611805439 l10.9679982421875,31.369206019091607 l-28.50570255355835,-19.4507541703701 l-28.506034675598144,19.4507541703701 l10.9679982421875,-31.369206019091607 l-28.585411843109128,-19.34813611805439 l35.284313385772705,0.06349277484416971 z" class=""/><path id="path14" style="fill:#006ab3;fill-rule:evenodd" d="m195.38613826009873,283.88666488291756 c2.4048956901550316,-1.9205706379890466 5.9798573265075685,-2.8908088784456254 12.128432649230957,-1.7716200202465058 c0.0003321220397949225,-3.8552126477003097 0.501836402130127,-6.41517268857956 2.1066500984191916,-6.125508353614808 c1.3437657730102541,-0.46092322494983684 3.7984797691345213,1.8666875804185872 7.01375323638916,6.102513672995568 c3.3348374015808107,2.462146847200394 6.536161743164063,2.4384657582044604 9.603973024749756,-0.07138647117614753 c6.757687143707275,-4.2814722496271145 15.252704677581788,-4.0048496738195425 25.485716845703127,0.8298677274227143 c19.590550639343263,1.910960920715334 23.94334209289551,-3.325648585081103 36.51648615341186,-2.036230449461937 c15.86414135284424,-0.66959137146473 28.470165495300293,5.170027893257141 36.314555953216555,20.522924054765703 c8.167877324676514,21.532630776882172 15.851188593292237,34.17833230071068 22.95029719390869,36.09787332613468 c5.449126306915286,1.953518240070343 7.639803281402588,4.511419055819512 2.6609617828369143,8.399236101412773 c-6.390692289733886,2.493721632528308 -3.0611688407897972,12.100350068545342 -6.607567981719971,18.50248099796772 h-21.962566247558595 c-2.3261827667236328,-10.172228938412667 12.69071526260376,-5.738030824971202 12.570154962158204,-14.04563140809536 c-1.0156291976928724,-9.68281976583004 -8.848063262176515,-4.24131735959053 -13.271928832244873,-6.361976039385797 c-6.561070896148681,-0.4811722720623023 -13.322411382293701,-9.456648205709456 -19.682548444366457,-1.4431736119985592 c-2.145508377075198,9.87329809036255 5.332883592987061,7.00479748415947 5.893837718200683,21.85078105947971 h-62.98760909118652 c-3.7998082572937006,-1.9542046484470368 0.39588947143554754,-5.415075683736801 7.0230526535034175,-8.129134405183791 l-0.11225724945068381,-6.400758112668992 c-5.657366825866699,-2.9707754543304477 -9.430605319976808,-8.065298426151276 -12.146699361419678,-14.351426339912416 c-13.619992729949951,1.8179525856733343 -24.73644952392578,7.845304541420936 -24.545479351043703,14.400847743034362 c-1.8167075576782228,5.73253955795765 -12.03743121032715,4.593788061022758 -12.517015435791016,-4.556378804492951 c-1.0342280319213881,-8.473025001907349 15.977727090454103,-15.960367574882508 19.62974104003906,-19.665943196463587 c-8.52590488357544,-4.671352207589149 -12.240357776641847,-11.138348728609085 -11.142694435119628,-19.400989563059806 c-3.031609979248049,1.5162761041164412 -1.9535418380737326,6.658504458117486 -9.09549418182373,4.54882831234932 c-7.425584565734864,0.7289656960487376 -5.92937477645874,-1.9603823238372802 -15.961453110504152,-2.163902407526972 c-2.0345796157836946,-2.857174867987633 -8.881275466156007,-9.029015787029268 -7.006778673553467,-12.921980895447732 c4.812116234588624,-5.490237400984765 14.134781891632082,-3.4186569201231003 17.142479084014894,-11.809312916827203 zm72.07712507629395,55.21434661705494 c4.227249322509766,-2.3142258420228985 7.8696317329406735,-2.7288165015459063 10.225373361206055,1.0357902404308332 c6.0595666160583495,9.357805399465562 14.634293439483642,10.84250671825409 11.22771767730713,16.264103281569483 c-3.430156427001953,-0.15958994758129158 -5.276422846221925,3.878207328319549 -7.97059683303833,5.2747051707029335 c-3.4915990043640135,-4.658653652620316 -8.186144036865233,-4.034365234017372 -10.474797013092042,-13.976647366237641 c0.5011721580505377,-4.5234312024116505 -2.606493768310547,-5.421253359127045 -3.0076971923828144,-8.597951326465607 z" class=""/><path id="path16" style="fill:#e30016;fill-rule:evenodd" d="m147.96940676061755,197.29899379651084 l5.212655414581299,18.320582778143883 l5.212987536621094,-18.320582778143883 h2.806763358306887 h4.179423748779297 h13.865098795318602 v57.60922544333934 h-18.044522544097898 v-27.582634209060668 l-8.019750894927977,20.407607447481155 l-8.019750894927977,-20.407607447481155 v27.582634209060668 h-18.044522544097898 v-57.60922544333934 h13.865098795318602 h4.179423748779297 z" class=""/><path id="path18" style="fill:#e30016;fill-rule:evenodd" d="m188.66930212728622,204.6542027569725 l11.829190691375732,-7.355208960461616 h9.924470793151855 h0.6014730140686037 h9.924470793151855 l11.829190691375732,7.355208960461616 v43.002798391485214 l-10.726545519256593,7.251218091392517 h-11.027115965270996 h-0.6014730140686037 h-11.027115965270996 l-10.726545519256593,-7.251218091392517 zm22.35513449859619,2.4707269519090675 h-0.6014730140686037 h-3.6088380844116212 v39.15788186943531 h3.6088380844116212 h0.6014730140686037 h3.6088380844116212 v-39.15788186943531 z" class=""/><path id="path20" style="fill:#e30016;fill-rule:evenodd" d="m291.76131176778915,204.6542027569725 l11.829190691375732,-7.355208960461616 h9.924470793151855 h0.6014730140686037 h9.924470793151855 l11.828858569335939,7.355208960461616 v43.002798391485214 l-10.726213397216798,7.251218091392517 h-11.027115965270996 h-0.6014730140686037 h-11.027115965270996 l-10.726545519256593,-7.251218091392517 zm22.35513449859619,2.4707269519090675 h-0.6014730140686037 h-3.6088380844116212 v39.15788186943531 h3.6088380844116212 h0.6014730140686037 h3.6088380844116212 v-39.15788186943531 z" class=""/><path id="path22" style="fill:#e30016;fill-rule:evenodd" d="m253.6293840128148,254.90821923985015 h17.743619976043703 v-47.47234653632641 h12.430663705444335 v-10.13687890701294 h-12.430663705444335 h-17.743619976043703 h-12.430663705444335 v10.13687890701294 h12.430663705444335 z" class=""/><path id="path24" style="fill:#e30016;fill-rule:evenodd" d="m356.5207919412815,197.29899379651084 h6.6783099761962905 h3.2461608169555647 h0.6014730140686037 h9.924470793151855 l11.828858569335939,7.355208960461616 v28.29272367475033 l-10.726213397216798,7.251561295580864 h-11.027115965270996 h-0.6014730140686037 h-3.2461608169555647 v14.709731512546538 h-17.743619976043703 v-57.60922544333934 zm6.6783099761962905,34.2737430650711 v-24.447807152700424 h3.2461608169555647 h0.6014730140686037 h3.6088380844116212 v24.447807152700424 h-3.6088380844116212 h-0.6014730140686037 z" class=""/><path id="path26" style="fill:#e30016;fill-rule:evenodd" d="m187.5666569551671,150.83223553204078 l11.829190691375732,-5.754504626011851 h8.220352606964111 h0.6014730140686037 h9.924470793151855 l11.829190691375732,5.754504626011851 v6.775880290532112 h-17.252743601226808 v-8.508031829118728 h-3.6088380844116212 h-0.6014730140686037 h-3.6088380844116212 v23.79640560321808 h3.6088380844116212 h0.6014730140686037 h3.6088380844116212 v-9.176250383830071 h17.252743601226808 v10.498272917342186 l-10.726545519256593,5.673508437561989 h-11.027115965270996 h-0.6014730140686037 h-9.322997779083252 l-10.726545519256593,-5.673508437561989 z" class=""/><path id="path28" style="fill:#e30016;fill-rule:evenodd" d="m248.76744947225694,179.89202056774633 h17.743619976043703 v-28.688438103914258 h12.430663705444335 v-6.125851557803154 h-12.430663705444335 h-17.743619976043703 h-12.430663705444335 v6.125851557803154 h12.430663705444335 z" class=""/><path id="path30" style="fill:#e30016;fill-rule:evenodd" d="m285.20721543447615,179.89202056774633 h17.743619976043703 v-12.775089502835275 l9.423298635101318,12.775089502835275 h17.743619976043703 l-13.942815352630616,-18.902313877391816 l11.737192886352538,-15.9119757843256 h-17.743619976043703 l-7.2176761688232425,9.785094613957405 v-9.785094613957405 h-17.743619976043703 z"/>
  </g>
</g>
</svg>
